<svg xmlns="http://www.w3.org/2000/svg" viewBox="0 0 345.5 455.5"><defs><style>.cls-1{fill:blue;}.cls-2{fill:none;stroke:#39b54a;stroke-width:8px;}.cls-2,.cls-3{stroke-miterlimit:10;}.cls-3{font-size:293.68px;fill:red;stroke:red;font-family:KozGoPr6N-Regular-83pv-RKSJ-H, Kozuka Gothic Pr6N;}</style></defs><g id="レイヤー_2" data-name="レイヤー 2"><g id="レイヤー_1-2" data-name="レイヤー 1"><path class="cls-1" d="M338.5,7V448.5H7V7H338.5m0-7H7A7,7,0,0,0,0,7V448.5a7,7,0,0,0,7,7H338.5a7,7,0,0,0,7-7V7a7,7,0,0,0-7-7Z"/><rect class="cls-1" x="61.5" y="40.5" width="228" height="6"/><rect class="cls-1" x="37.5" y="421.5" width="272" height="6"/><rect class="cls-1" x="37.5" y="358.5" width="272" height="6"/><rect class="cls-1" x="37.5" y="390.5" width="272" height="6"/><rect class="cls-1" x="37.5" y="79.5" width="272" height="6"/><path class="cls-2" d="M16.5,277.58c9.71-33.68,18.55-58.64,23.41-58,5.59.78,2.11,34.84,7.66,35.61,8.89,1.24,26.91-84.68,35.33-83.72,10.68,1.21.06,141.52,3,141.68,1.81.11,5.9-53.8,11.92-53.79,4.38,0,6.4,28.5,9.36,28.41,5.5-.17,6.72-98.51,7.66-98.5.77,0,.35,65.21,6,65.54,2.69.16,4.47-14.67,8.94-14.77,7.14-.16,11.82,37.36,15.33,37.12,5.23-.35,2.68-84.42,4.25-84.48,1.41,0,4.07,67.94,11.49,68.19,4.32.15,8-22.71,11.5-22.35,2.86.3.41,20.8,3,21.22,5,.81,19.48-75.57,30.22-75,8.5.44,12.32,47.67,13.19,71.22,1.29,34.92-2.3,61.55-.42,61.75,3,.32,13.19-69,20-68.57,3.42.23,3.85,17.81,6.39,17.81,4,0,7.15-44.78,8.51-44.71s-.74,36.29,3.41,36.75c2.65.3,4.46-14.44,9.79-14.77,5-.32,9.59,12.1,22.13,42.8,11.32,27.74,13.16,31.37,15.75,31.45,5,.15,12.8-13.09,24.26-78"/><text class="cls-3" transform="translate(0.5 330.94) scale(0.98 1)">♡</text></g></g></svg>